<?xml version="1.0" standalone="no"?><svg xmlns="http://www.w3.org/2000/svg" viewBox="0 0 1440 320"><path fill="#ebe120" fill-opacity="0.8" d="M0,160L16,181.3C32,203,64,245,96,250.7C128,256,160,224,192,208C224,192,256,192,288,160C320,128,352,64,384,74.7C416,85,448,171,480,181.3C512,192,544,128,576,117.3C608,107,640,149,672,186.7C704,224,736,256,768,234.7C800,213,832,139,864,128C896,117,928,171,960,181.3C992,192,1024,160,1056,133.3C1088,107,1120,85,1152,69.3C1184,53,1216,43,1248,42.7C1280,43,1312,53,1344,64C1376,75,1408,85,1424,90.7L1440,96L1440,320L1424,320C1408,320,1376,320,1344,320C1312,320,1280,320,1248,320C1216,320,1184,320,1152,320C1120,320,1088,320,1056,320C1024,320,992,320,960,320C928,320,896,320,864,320C832,320,800,320,768,320C736,320,704,320,672,320C640,320,608,320,576,320C544,320,512,320,480,320C448,320,416,320,384,320C352,320,320,320,288,320C256,320,224,320,192,320C160,320,128,320,96,320C64,320,32,320,16,320L0,320Z"></path></svg>